<?xml version="1.0" encoding="UTF-8"?>
<svg id="a" data-name="Layer 1" xmlns="http://www.w3.org/2000/svg" viewBox="0 0 1000 1000">
  <defs>
    <style>
      .b {
        fill-rule: evenodd;
      }

      .b, .c {
        fill: #fff;
      }
    </style>
  </defs>
  <g>
    <path class="b" d="M154.31,558.46v64.18h43.27v-64.18h-43.27ZM131.43,770.75v-360.41c-20.78,7.27-35.72,27.25-35.72,50.04v260.34c0,22.79,14.93,42.79,35.72,50.04ZM399.8,205.34h360.43c-7.27-20.78-27.25-35.72-50.04-35.72h-260.36c-22.79,0-42.77,14.93-50.04,35.72h0ZM547.92,282.75h64.18v-54.54h-64.18v54.54ZM744.74,365.52c-3.32-20.65-19.37-59.88-40.28-59.88h-246.27c-26.79,0-48.82,20.1-51.24,46.76-3.7,40.73-37.32,71.45-78.22,71.45h-86.17c-12.18,0-22.08,9.92-22.08,22.1h0s0,289.21,0,289.21c0,12.18,9.92,22.12,22.1,22.12h158.44l98.35-.16s-171.01-166.06,12.4-353.59c0,0,107.4-88.4,232.97-38Z"/>
    <path class="c" d="M662.48,830.38c-133.33,0-241.8-108.47-241.8-241.8s108.47-241.8,241.8-241.8,241.8,108.47,241.8,241.8-108.47,241.8-241.8,241.8ZM662.48,362.78c-124.51,0-225.8,101.29-225.8,225.8s101.29,225.8,225.8,225.8,225.8-101.29,225.8-225.8-101.29-225.8-225.8-225.8Z"/>
  </g>
  <path class="c" d="M774.6,504.63l-83.89-52.49c-17.41-10.9-39.05-10.89-56.46,0l-83.89,52.49c-9.47,5.93-15.36,16.76-15.36,28.27v111.36c0,11.51,5.89,22.34,15.36,28.27l83.89,52.49c8.71,5.45,18.47,8.17,28.23,8.17s19.52-2.72,28.23-8.17l83.89-52.49c9.47-5.93,15.36-16.76,15.36-28.27v-111.36c0-11.51-5.89-22.34-15.36-28.27h0ZM634.25,585.72c8.71,5.45,18.47,8.17,28.23,8.17s19.52-2.72,28.23-8.17l82.31-51.5v26.46l-91.29,57.12c-11.87,7.43-26.62,7.43-38.5,0l-91.29-57.12v-26.46l82.31,51.5ZM551.94,580.65l82.31,51.5c8.71,5.45,18.47,8.17,28.23,8.17s19.52-2.72,28.23-8.17l82.31-51.5v26.46l-91.29,57.12c-11.87,7.43-26.62,7.43-38.5,0l-91.29-57.12v-26.46ZM643.23,466.5c5.94-3.71,12.59-5.57,19.25-5.57s13.31,1.86,19.25,5.57l83.8,52.43-83.8,52.43c-11.87,7.43-26.62,7.43-38.5,0l-83.8-52.43,83.8-52.43ZM765.62,658.17l-83.89,52.49c-11.87,7.43-26.62,7.43-38.5,0l-83.89-52.49c-4.57-2.86-7.41-8.19-7.41-13.91v-17.18l82.31,51.5c8.71,5.45,18.47,8.17,28.23,8.17s19.52-2.72,28.23-8.17l82.31-51.5v17.18c0,5.72-2.84,11.06-7.41,13.91h0Z"/>
</svg>