<?xml version="1.0" encoding="UTF-8"?>
<svg id="Layer_1" xmlns="http://www.w3.org/2000/svg" xmlns:xlink="http://www.w3.org/1999/xlink" version="1.1" viewBox="0 0 500 500">
  <!-- Generator: Adobe Illustrator 30.5.0, SVG Export Plug-In . SVG Version: 2.1.4 Build 167)  -->
  <defs>
    <style>
      .st0 {
        fill: #FFFFFF;
      }

      .st1 {
        fill: #FFFFFF;
      }

      .st2 {
        fill: #FFFFFF;
      }

      .st3 {
        fill: #FFFFFF;
      }

      .st4 {
        fill: #FFFFFF;
      }

      .st5 {
        fill: #FFFFFF;
      }

      .st6 {
        fill: #FFFFFF;
      }
    </style>
    <linearGradient id="linear-gradient" x1="312.6" y1="9.38" x2="312.6" y2="311.2" gradientUnits="userSpaceOnUse">
      <stop offset="0" stop-color="#6b91cb"/>
      <stop offset="1" stop-color="#4e2a7c"/>
    </linearGradient>
    <linearGradient id="linear-gradient1" x1="384.69" y1="253.89" x2="384.69" y2="392.11" xlink:href="#linear-gradient"/>
    <linearGradient id="linear-gradient2" x1="272.16" y1="428.35" x2="272.16" y2="430.36" xlink:href="#linear-gradient"/>
    <linearGradient id="linear-gradient3" x1="225.69" x2="225.69" y2="490.62" xlink:href="#linear-gradient"/>
    <linearGradient id="linear-gradient4" x1="128.03" y1="342.7" x2="128.03" y2="342.92" xlink:href="#linear-gradient"/>
    <linearGradient id="linear-gradient5" x1="272.16" y1="428.35" x2="272.16" y2="430.36" xlink:href="#linear-gradient"/>
    <linearGradient id="linear-gradient6" x1="132.19" y1="385.35" x2="132.19" y2="489.42" xlink:href="#linear-gradient"/>
  </defs>
  <path class="st6" d="M399.88,302.51v8.69l.22-.12v-8.57h-.22ZM225.46,9.38l-.36,12.67.38-.22-.02-12.45Z"/>
  <path class="st1" d="M320.87,253.89v10.37h117.26v117.48h-.22v10.37h10.59v-138.22h-127.63Z"/>
  <rect class="st0" x="272.05" y="428.35" width=".22" height="2.01"/>
  <polygon class="st2" points="399.88 302.51 399.88 440.72 389.3 440.72 389.3 430.36 389.51 430.36 389.51 394.66 227.49 489.42 225.46 490.62 225.48 486.05 225.51 479.65 225.75 411.71 128.21 355.37 51.49 311.08 51.49 109.82 225.46 9.38 225.1 22.05 223.02 94.57 222.68 106.54 128.21 168.36 128.21 342.7 127.85 342.7 128.21 342.92 225.79 399.26 228.4 397.75 375.36 312.87 272.27 312.87 272.27 302.51 399.88 302.51"/>
  <polygon class="st5" points="128.21 342.7 128.21 342.92 127.85 342.7 128.21 342.7"/>
  <rect class="st4" x="272.05" y="428.35" width=".22" height="2.01"/>
  <polygon class="st3" points="212.89 478.12 212.89 489.42 203.19 484.3 51.49 396.69 51.49 385.35 201.66 472.09 201.88 472.21 212.89 478.12"/>
</svg>