<?xml version="1.0" encoding="UTF-8"?>
<svg id="a" data-name="Layer 1" xmlns="http://www.w3.org/2000/svg" xmlns:xlink="http://www.w3.org/1999/xlink" viewBox="0 0 676.78 240.05">
  <defs>
    <style>
      .i {
        fill: url(#h);
      }

      .j {
        fill: url(#g);
      }

      .k {
        fill: url(#f);
      }

      .l {
        fill: url(#e);
      }

      .m {
        fill: url(#d);
      }

      .n {
        fill: url(#c);
      }

      .o {
        fill: url(#b);
      }

      .p {
        fill: #4e2a7c;
      }
    </style>
    <linearGradient id="b" x1="119.65" y1="26.98" x2="119.65" y2="146.72" gradientUnits="userSpaceOnUse">
      <stop offset="0" stop-color="#6b91cb"/>
      <stop offset="1" stop-color="#4e2a7c"/>
    </linearGradient>
    <linearGradient id="c" x1="148.25" y1="123.98" x2="148.25" y2="178.82" xlink:href="#b"/>
    <linearGradient id="d" x1="103.61" y1="193.19" x2="103.61" y2="193.99" xlink:href="#b"/>
    <linearGradient id="e" x1="85.17" x2="85.17" y2="217.9" xlink:href="#b"/>
    <linearGradient id="f" x1="46.42" y1="159.22" x2="46.42" y2="159.3" xlink:href="#b"/>
    <linearGradient id="g" x1="103.61" y1="193.19" x2="103.61" y2="193.99" xlink:href="#b"/>
    <linearGradient id="h" x1="48.08" y1="176.14" x2="48.08" y2="217.43" xlink:href="#b"/>
  </defs>
  <g>
    <path class="p" d="M261.65,56.87c-1.42-1.13-3-2.13-4.73-2.98-1.74-.85-3.66-1.54-5.77-2.08-2.11-.54-4.37-.8-6.76-.8-3.91,0-7.55.6-10.93,1.8-3.38,1.2-6.31,3.04-8.8,5.54s-4.45,5.65-5.87,9.46c-1.42,3.82-2.13,8.34-2.13,13.58,0,4.61.63,8.77,1.89,12.49,1.26,3.72,3.11,6.86,5.54,9.41,2.43,2.55,5.39,4.53,8.89,5.91,3.5,1.39,7.46,2.08,11.87,2.08,1.32,0,2.71-.06,4.16-.19,1.45-.13,2.85-.31,4.21-.57,1.36-.25,2.62-.57,3.79-.95,1.17-.38,2.16-.82,2.98-1.33.06-1.89.11-3.78.14-5.68.03-1.89.05-3.82.05-5.77,0-2.21-.05-4.42-.14-6.62-.09-2.21-.21-4.32-.33-6.34,1.58.32,3.09.47,4.54.47.69,0,1.39-.03,2.08-.09.69-.06,1.36-.19,1.99-.38-.13,1.45-.22,3.74-.28,6.86-.06,3.12-.09,7.24-.09,12.35,0,1.26.01,2.54.05,3.83.03,1.29.05,2.57.05,3.83-1.33.51-2.98,1.03-4.97,1.56-1.99.54-4.1.98-6.34,1.32-2.24.35-4.48.66-6.72.95-2.24.28-4.27.43-6.1.43-5.61,0-10.68-.68-15.19-2.03s-8.34-3.45-11.5-6.29c-3.16-2.84-5.58-6.37-7.29-10.6-1.7-4.22-2.55-9.11-2.55-14.67s.88-10.14,2.65-14.33c1.76-4.19,4.26-7.74,7.47-10.64,3.22-2.9,7.11-5.11,11.68-6.62,4.57-1.51,9.63-2.27,15.19-2.27,3.22,0,6.07.17,8.56.52,2.49.35,4.7.8,6.62,1.37,1.92.57,3.61,1.17,5.06,1.8,1.45.63,2.74,1.23,3.88,1.8-.51.88-.96,2.02-1.37,3.41-.41,1.39-.68,2.68-.8,3.88h-1.14c-.95-1.13-2.13-2.27-3.55-3.41Z"/>
    <path class="p" d="M333.89,79.49c0-8.96-.03-15.86-.09-20.72-.06-4.86-.22-8.2-.47-10.03.69.13,1.36.24,1.99.33.63.09,1.26.14,1.89.14.82,0,1.77-.16,2.84-.47-.19,2.21-.38,4.84-.57,7.9-.19,3.06-.35,6.34-.47,9.84-.13,3.5-.25,7.1-.38,10.79-.13,3.69-.22,7.27-.28,10.74-.06,4.23-.71,8.01-1.94,11.35-1.23,3.34-2.98,6.18-5.25,8.52-2.27,2.33-5.06,4.1-8.37,5.3-3.31,1.2-7.11,1.8-11.4,1.8-9.46,0-16.34-2.14-20.63-6.43-4.29-4.29-6.43-11.07-6.43-20.34,0-2.96.08-5.6.24-7.9.16-2.3.24-4.65.24-7.05,0-5.3-.06-10-.19-14.1-.13-4.1-.25-7.57-.38-10.41.76.13,1.58.24,2.46.33.88.09,1.7.14,2.46.14.69,0,1.37-.05,2.03-.14.66-.09,1.34-.2,2.03-.33-.13,1.39-.25,3.2-.38,5.44-.13,2.24-.25,4.78-.38,7.62-.13,2.84-.22,5.9-.28,9.18-.06,3.28-.09,6.69-.09,10.22,0,2.14.03,4.37.09,6.67.06,2.3.28,4.54.66,6.72.38,2.18.99,4.26,1.84,6.24.85,1.99,2.07,3.72,3.64,5.2,1.58,1.48,3.56,2.65,5.96,3.5,2.4.85,5.36,1.28,8.89,1.28s6.39-.5,8.75-1.51c2.37-1.01,4.31-2.33,5.82-3.97,1.51-1.64,2.7-3.53,3.55-5.68.85-2.14,1.47-4.38,1.84-6.72.38-2.33.6-4.67.66-7,.06-2.33.09-4.48.09-6.43Z"/>
    <path class="p" d="M410.43,113.74c-.88-.13-1.72-.19-2.51-.19h-5.01c-.79,0-1.62.06-2.51.19-.44-1.45-1.04-3.2-1.8-5.25-.76-2.05-1.59-4.19-2.51-6.43-.92-2.24-1.85-4.51-2.79-6.81-.95-2.3-1.83-4.49-2.65-6.58-2.02-.06-4.07-.11-6.15-.14-2.08-.03-4.16-.05-6.24-.05-1.96,0-3.88.02-5.77.05-1.89.03-3.82.08-5.77.14-2.02,4.92-3.85,9.6-5.49,14.05-1.64,4.45-2.87,8.12-3.69,11.02-1.07-.13-2.24-.19-3.5-.19s-2.43.06-3.5.19c5.11-11.04,10.09-22.01,14.95-32.93,4.86-10.91,9.75-22.01,14.67-33.3h1.8c1.51,3.66,3.15,7.62,4.92,11.87,1.77,4.26,3.56,8.56,5.39,12.92,1.83,4.35,3.66,8.67,5.49,12.96,1.83,4.29,3.55,8.28,5.16,11.97,1.61,3.69,3.06,6.99,4.35,9.89,1.29,2.9,2.35,5.11,3.17,6.62ZM368.51,84.31c1.64,0,3.34.03,5.11.09,1.76.06,3.47.09,5.11.09,1.77,0,3.53-.02,5.3-.05,1.76-.03,3.53-.08,5.3-.14l-10.5-24.03-10.31,24.03Z"/>
    <path class="p" d="M421.31,73.24c0-4.16-.08-8.25-.24-12.25-.16-4-.33-8.09-.52-12.25,1.83.13,3.63.24,5.39.33,1.76.09,3.56.14,5.39.14s3.63-.08,5.39-.24c1.76-.16,3.56-.24,5.39-.24,2.65,0,5.17.25,7.57.76,2.4.5,4.49,1.34,6.29,2.51,1.8,1.17,3.22,2.7,4.26,4.59,1.04,1.89,1.56,4.26,1.56,7.1,0,3.03-.68,5.63-2.03,7.81-1.36,2.18-3.01,3.97-4.97,5.39-1.96,1.42-4.05,2.52-6.29,3.31-2.24.79-4.27,1.31-6.1,1.56.76.95,1.8,2.27,3.12,3.97s2.81,3.58,4.45,5.63c1.64,2.05,3.34,4.2,5.11,6.43,1.77,2.24,3.47,4.38,5.11,6.43,1.64,2.05,3.18,3.93,4.64,5.63,1.45,1.7,2.62,3,3.5,3.88-.95-.13-1.89-.19-2.84-.19h-5.58c-.95,0-1.86.06-2.74.19-.95-1.33-2.38-3.31-4.31-5.96-1.92-2.65-4.05-5.49-6.39-8.51-2.33-3.03-4.72-6.04-7.14-9.04-2.43-3-4.65-5.54-6.67-7.62h-3.6v6.91c0,4.16.08,8.26.24,12.3.16,4.04.33,8.01.52,11.92-1.45-.13-3-.19-4.64-.19s-3.19.06-4.64.19c.19-3.91.36-7.88.52-11.92.16-4.04.24-8.14.24-12.3v-16.27ZM429.07,78.64c.88.19,1.84.32,2.89.38,1.04.06,2.19.09,3.45.09,1.96,0,3.99-.22,6.1-.66,2.11-.44,4.05-1.21,5.82-2.32,1.76-1.1,3.23-2.58,4.4-4.45,1.17-1.86,1.75-4.21,1.75-7.05,0-2.46-.46-4.49-1.37-6.1-.92-1.61-2.1-2.89-3.55-3.83-1.45-.95-3.03-1.59-4.73-1.94-1.7-.35-3.38-.52-5.01-.52-2.21,0-4.04.05-5.49.14-1.45.09-2.68.21-3.69.33-.13,3.47-.25,6.91-.38,10.31-.13,3.41-.19,6.81-.19,10.22v5.39Z"/>
    <path class="p" d="M479.12,73.24c0-4.16-.08-8.25-.24-12.25-.16-4-.33-8.09-.52-12.25,2.4.13,4.78.24,7.14.33,2.37.09,4.75.14,7.14.14s4.78-.08,7.14-.24c2.37-.16,4.75-.24,7.14-.24,5.55,0,10.3.73,14.24,2.18,3.94,1.45,7.17,3.52,9.7,6.2,2.52,2.68,4.37,5.96,5.54,9.84,1.17,3.88,1.75,8.25,1.75,13.1,0,6.31-1.09,11.62-3.26,15.94-2.18,4.32-4.95,7.81-8.33,10.46-3.38,2.65-7.1,4.53-11.16,5.63-4.07,1.1-7.96,1.66-11.69,1.66-2.14,0-4.26-.03-6.34-.09-2.08-.06-4.2-.09-6.34-.09h-6.34c-2.08,0-4.2.06-6.34.19.19-3.91.36-7.88.52-11.92.16-4.04.24-8.14.24-12.3v-16.27ZM486.88,89.52c0,6.81.19,13.5.57,20.06,1.33.32,3.12.55,5.39.71s4.6.24,7,.24c3.47,0,6.94-.41,10.41-1.23,3.47-.82,6.58-2.37,9.32-4.64,2.74-2.27,4.98-5.38,6.72-9.32,1.73-3.94,2.6-9.04,2.6-15.28,0-5.49-.68-10-2.03-13.53-1.36-3.53-3.22-6.32-5.58-8.37-2.37-2.05-5.19-3.47-8.47-4.26-3.28-.79-6.88-1.18-10.79-1.18-2.84,0-5.49.09-7.95.28s-4.67.41-6.62.66c-.19,3.03-.33,6.2-.43,9.51-.09,3.31-.14,6.67-.14,10.08v16.27Z"/>
    <path class="p" d="M552.49,60.85c-.16-4.04-.33-8.07-.52-12.11,2.84.13,5.66.24,8.47.33,2.81.09,5.63.14,8.47.14s5.64-.05,8.42-.14c2.78-.09,5.58-.2,8.42-.33-.19.95-.28,1.89-.28,2.84s.09,1.89.28,2.84c-2.02-.13-3.86-.25-5.54-.38-1.67-.13-3.44-.25-5.3-.38-1.86-.12-3.9-.24-6.1-.33-2.21-.09-4.86-.14-7.95-.14-.06,2.02-.14,3.94-.24,5.77-.09,1.83-.14,3.91-.14,6.24,0,2.46.01,4.86.05,7.19.03,2.33.05,4.1.05,5.3,2.77,0,5.27-.03,7.47-.09,2.21-.06,4.22-.14,6.05-.24,1.83-.09,3.52-.19,5.06-.28,1.54-.09,3.01-.2,4.4-.33-.19.95-.28,1.92-.28,2.93,0,.95.09,1.89.28,2.84-1.64-.19-3.55-.35-5.72-.47-2.18-.13-4.35-.2-6.53-.24-2.18-.03-4.23-.06-6.15-.09-1.92-.03-3.45-.05-4.59-.05,0,.57-.02,1.18-.05,1.84-.03.66-.05,1.5-.05,2.51v9.37c0,3.6.01,6.56.05,8.89.03,2.33.08,4.1.14,5.3h6.62c2.4,0,4.75-.05,7.05-.14,2.3-.09,4.48-.22,6.53-.38,2.05-.16,3.83-.39,5.35-.71-.13.44-.21.93-.24,1.47-.03.54-.05,1.03-.05,1.47,0,1.01.09,1.83.28,2.46-2.84-.13-5.66-.19-8.47-.19h-17.17c-2.84,0-5.71.06-8.61.19.19-4.04.36-8.06.52-12.06.16-4,.24-8.09.24-12.25v-16.27c0-4.16-.08-8.26-.24-12.3Z"/>
    <path class="p" d="M600.03,73.24c0-4.16-.08-8.25-.24-12.25-.16-4-.33-8.09-.52-12.25,2.4.13,4.78.24,7.14.33,2.37.09,4.75.14,7.14.14s4.78-.08,7.14-.24c2.37-.16,4.75-.24,7.14-.24,5.55,0,10.3.73,14.24,2.18,3.94,1.45,7.17,3.52,9.7,6.2,2.52,2.68,4.37,5.96,5.54,9.84,1.17,3.88,1.75,8.25,1.75,13.1,0,6.31-1.09,11.62-3.26,15.94-2.18,4.32-4.95,7.81-8.33,10.46-3.38,2.65-7.1,4.53-11.16,5.63-4.07,1.1-7.96,1.66-11.69,1.66-2.14,0-4.26-.03-6.34-.09-2.08-.06-4.2-.09-6.34-.09h-6.34c-2.08,0-4.2.06-6.34.19.19-3.91.36-7.88.52-11.92.16-4.04.24-8.14.24-12.3v-16.27ZM607.79,89.52c0,6.81.19,13.5.57,20.06,1.33.32,3.12.55,5.39.71s4.6.24,7,.24c3.47,0,6.94-.41,10.41-1.23,3.47-.82,6.58-2.37,9.32-4.64,2.74-2.27,4.98-5.38,6.72-9.32,1.73-3.94,2.6-9.04,2.6-15.28,0-5.49-.68-10-2.03-13.53-1.36-3.53-3.22-6.32-5.58-8.37-2.37-2.05-5.19-3.47-8.47-4.26-3.28-.79-6.88-1.18-10.79-1.18-2.84,0-5.49.09-7.95.28s-4.67.41-6.62.66c-.19,3.03-.33,6.2-.43,9.51-.09,3.31-.14,6.67-.14,10.08v16.27Z"/>
    <path class="p" d="M261.65,139.28c-1.42-1.13-3-2.13-4.73-2.98-1.74-.85-3.66-1.54-5.77-2.08-2.11-.54-4.37-.8-6.76-.8-3.91,0-7.55.6-10.93,1.8-3.38,1.2-6.31,3.04-8.8,5.54s-4.45,5.65-5.87,9.46c-1.42,3.82-2.13,8.34-2.13,13.58,0,4.61.63,8.77,1.89,12.49,1.26,3.72,3.11,6.86,5.54,9.41,2.43,2.55,5.39,4.53,8.89,5.91,3.5,1.39,7.46,2.08,11.87,2.08,1.32,0,2.71-.06,4.16-.19,1.45-.13,2.85-.31,4.21-.57,1.36-.25,2.62-.57,3.79-.95,1.17-.38,2.16-.82,2.98-1.33.06-1.89.11-3.78.14-5.68.03-1.89.05-3.82.05-5.77,0-2.21-.05-4.42-.14-6.62-.09-2.21-.21-4.32-.33-6.34,1.58.32,3.09.47,4.54.47.69,0,1.39-.03,2.08-.09.69-.06,1.36-.19,1.99-.38-.13,1.45-.22,3.74-.28,6.86-.06,3.12-.09,7.24-.09,12.35,0,1.26.01,2.54.05,3.83.03,1.29.05,2.57.05,3.83-1.33.51-2.98,1.03-4.97,1.56-1.99.54-4.1.98-6.34,1.32-2.24.35-4.48.66-6.72.95-2.24.28-4.27.43-6.1.43-5.61,0-10.68-.68-15.19-2.03s-8.34-3.45-11.5-6.29c-3.16-2.84-5.58-6.37-7.29-10.6-1.7-4.22-2.55-9.11-2.55-14.67s.88-10.14,2.65-14.33c1.76-4.19,4.26-7.74,7.47-10.64,3.22-2.9,7.11-5.11,11.68-6.62,4.57-1.51,9.63-2.27,15.19-2.27,3.22,0,6.07.17,8.56.52,2.49.35,4.7.8,6.62,1.37,1.92.57,3.61,1.17,5.06,1.8,1.45.63,2.74,1.23,3.88,1.8-.51.88-.96,2.02-1.37,3.41-.41,1.39-.68,2.68-.8,3.88h-1.14c-.95-1.13-2.13-2.27-3.55-3.41Z"/>
    <path class="p" d="M290.74,155.65c0-4.16-.08-8.25-.24-12.25-.16-4-.33-8.09-.52-12.25,1.83.13,3.63.24,5.39.33,1.76.09,3.56.14,5.39.14s3.63-.08,5.39-.24c1.76-.16,3.56-.24,5.39-.24,2.65,0,5.17.25,7.57.76,2.4.5,4.49,1.34,6.29,2.51,1.8,1.17,3.22,2.7,4.26,4.59,1.04,1.89,1.56,4.26,1.56,7.1,0,3.03-.68,5.63-2.03,7.81-1.36,2.18-3.01,3.97-4.97,5.39-1.96,1.42-4.05,2.52-6.29,3.31-2.24.79-4.27,1.31-6.1,1.56.76.95,1.8,2.27,3.12,3.97s2.81,3.58,4.45,5.63c1.64,2.05,3.34,4.2,5.11,6.43,1.77,2.24,3.47,4.38,5.11,6.43,1.64,2.05,3.18,3.93,4.64,5.63,1.45,1.7,2.62,3,3.5,3.88-.95-.13-1.89-.19-2.84-.19h-5.58c-.95,0-1.86.06-2.74.19-.95-1.33-2.38-3.31-4.31-5.96-1.92-2.65-4.05-5.49-6.39-8.51-2.33-3.03-4.72-6.04-7.14-9.04-2.43-3-4.65-5.54-6.67-7.62h-3.6v6.91c0,4.16.08,8.26.24,12.3.16,4.04.33,8.01.52,11.92-1.45-.13-3-.19-4.64-.19s-3.19.06-4.64.19c.19-3.91.36-7.88.52-11.92.16-4.04.24-8.14.24-12.3v-16.27ZM298.5,161.04c.88.19,1.84.32,2.89.38,1.04.06,2.19.09,3.45.09,1.96,0,3.99-.22,6.1-.66,2.11-.44,4.05-1.21,5.82-2.32,1.76-1.1,3.23-2.58,4.4-4.45,1.17-1.86,1.75-4.21,1.75-7.05,0-2.46-.46-4.49-1.37-6.1-.92-1.61-2.1-2.89-3.55-3.83-1.45-.95-3.03-1.59-4.73-1.94-1.7-.35-3.38-.52-5.01-.52-2.21,0-4.04.05-5.49.14-1.45.09-2.68.21-3.69.33-.13,3.47-.25,6.91-.38,10.31-.13,3.41-.19,6.81-.19,10.22v5.39Z"/>
    <path class="p" d="M349.4,163.78c0-5.36.87-10.14,2.6-14.33,1.73-4.19,4.16-7.74,7.29-10.64,3.12-2.9,6.86-5.11,11.21-6.62,4.35-1.51,9.11-2.27,14.29-2.27s10.03.76,14.38,2.27,8.09,3.72,11.21,6.62c3.12,2.9,5.55,6.45,7.29,10.64,1.73,4.2,2.6,8.97,2.6,14.33s-.87,10.14-2.6,14.33c-1.74,4.2-4.16,7.74-7.29,10.64-3.12,2.9-6.86,5.06-11.21,6.48-4.35,1.42-9.15,2.13-14.38,2.13s-9.93-.71-14.29-2.13c-4.35-1.42-8.09-3.58-11.21-6.48-3.12-2.9-5.55-6.45-7.29-10.64-1.74-4.19-2.6-8.97-2.6-14.33ZM411,163.78c0-5.23-.66-9.76-1.99-13.58s-3.17-6.97-5.54-9.46c-2.37-2.49-5.14-4.34-8.33-5.54-3.19-1.2-6.64-1.8-10.36-1.8s-7.08.6-10.27,1.8c-3.19,1.2-5.96,3.04-8.33,5.54-2.37,2.49-4.21,5.65-5.54,9.46-1.32,3.82-1.99,8.34-1.99,13.58s.66,9.76,1.99,13.58c1.33,3.82,3.17,6.97,5.54,9.46,2.37,2.49,5.14,4.34,8.33,5.53,3.18,1.2,6.61,1.8,10.27,1.8s7.17-.6,10.36-1.8c3.18-1.2,5.96-3.04,8.33-5.53,2.37-2.49,4.21-5.64,5.54-9.46,1.32-3.82,1.99-8.34,1.99-13.58Z"/>
    <path class="p" d="M450.35,196.14c-.5-1.58-1.28-4.07-2.32-7.47s-2.22-7.25-3.55-11.54c-1.33-4.29-2.71-8.78-4.16-13.48-1.45-4.7-2.84-9.18-4.16-13.43-1.33-4.26-2.54-8.09-3.64-11.5-1.1-3.41-1.97-5.93-2.6-7.57.82.13,1.61.24,2.37.33.76.09,1.54.14,2.37.14s1.61-.05,2.37-.14c.76-.09,1.54-.2,2.37-.33,1.2,4.79,2.37,9.29,3.5,13.48,1.13,4.2,2.35,8.45,3.64,12.77,1.29,4.32,2.68,8.86,4.16,13.62,1.48,4.76,3.17,10.14,5.06,16.13h.19c.57-1.7,1.36-4.05,2.37-7.05,1.01-3,2.11-6.31,3.31-9.93,1.2-3.63,2.46-7.39,3.78-11.31,1.32-3.91,2.55-7.65,3.69-11.21,1.14-3.56,2.14-6.81,3.03-9.75.88-2.93,1.51-5.19,1.89-6.77,1.26.32,2.3.47,3.12.47s1.86-.16,3.12-.47c.44,1.7,1.12,4.04,2.03,7,.91,2.97,1.94,6.26,3.08,9.89,1.13,3.63,2.35,7.4,3.64,11.31,1.29,3.91,2.54,7.66,3.74,11.26s2.29,6.84,3.26,9.75c.98,2.9,1.75,5.17,2.32,6.81h.19c.44-1.39,1.12-3.55,2.03-6.48.91-2.93,1.96-6.24,3.12-9.93,1.17-3.69,2.37-7.57,3.59-11.64,1.23-4.07,2.4-7.95,3.5-11.64,1.1-3.69,2.08-6.99,2.93-9.89s1.43-5.05,1.75-6.43c.57.13,1.12.24,1.66.33.54.09,1.09.14,1.66.14s1.12-.05,1.66-.14c.54-.09,1.09-.2,1.66-.33-.63,1.45-1.55,3.85-2.74,7.19-1.2,3.34-2.54,7.16-4.02,11.45-1.48,4.29-3.03,8.83-4.64,13.62-1.61,4.79-3.15,9.35-4.64,13.67-1.48,4.32-2.81,8.2-3.97,11.64-1.17,3.44-2.03,5.91-2.6,7.43-1.01-.13-2.08-.19-3.22-.19s-2.21.06-3.22.19c-2.84-8.77-5.65-17.58-8.42-26.44-2.78-8.86-5.77-18.02-8.99-27.49h-.19c-.51,1.45-1.18,3.39-2.03,5.82-.85,2.43-1.8,5.16-2.84,8.18-1.04,3.03-2.16,6.28-3.36,9.75-1.2,3.47-2.4,6.97-3.6,10.5-1.2,3.53-2.37,7-3.5,10.41-1.13,3.41-2.18,6.5-3.12,9.27-1.01-.13-2.11-.19-3.31-.19s-2.3.06-3.31.19Z"/>
    <path class="p" d="M551.59,136.06c-1.64,0-3.36.02-5.16.05-1.8.03-3.6.09-5.39.19s-3.53.21-5.2.33c-1.67.13-3.17.28-4.49.47.31-1.13.47-2.14.47-3.03,0-.69-.16-1.67-.47-2.93,4.16.13,8.23.24,12.21.33,3.97.09,8.04.14,12.21.14s8.23-.05,12.21-.14c3.97-.09,8.04-.2,12.21-.33-.32,1.26-.47,2.27-.47,3.03,0,.82.16,1.8.47,2.93-1.33-.19-2.82-.35-4.49-.47-1.67-.13-3.41-.24-5.2-.33s-3.59-.16-5.39-.19c-1.8-.03-3.52-.05-5.16-.05-.19,6.5-.28,13.03-.28,19.58v16.27c0,4.16.08,8.26.24,12.3.16,4.04.33,8.01.52,11.92-1.45-.13-3-.19-4.64-.19s-3.19.06-4.64.19c.19-3.91.36-7.88.52-11.92.16-4.04.24-8.14.24-12.3v-16.27c0-6.56-.09-13.09-.28-19.58Z"/>
    <path class="p" d="M644.55,143.4c-.16-4-.33-8.09-.52-12.25.82.13,1.61.24,2.37.33.76.09,1.51.14,2.27.14s1.51-.05,2.27-.14c.76-.09,1.54-.2,2.37-.33-.19,4.16-.36,8.25-.52,12.25-.16,4.01-.24,8.09-.24,12.25v16.27c0,4.16.08,8.26.24,12.3.16,4.04.33,8.01.52,11.92-1.45-.13-3-.19-4.64-.19s-3.19.06-4.64.19c.19-3.91.36-7.88.52-11.92.16-4.04.24-8.14.24-12.3v-8.51c-3.41-.06-6.7-.11-9.89-.14-3.19-.03-6.48-.05-9.89-.05s-6.7.02-9.89.05c-3.19.03-6.48.08-9.89.14v8.51c0,4.16.08,8.26.24,12.3.16,4.04.33,8.01.52,11.92-1.45-.13-3-.19-4.64-.19s-3.19.06-4.64.19c.19-3.91.36-7.88.52-11.92.16-4.04.24-8.14.24-12.3v-16.27c0-4.16-.08-8.25-.24-12.25-.16-4-.33-8.09-.52-12.25.82.13,1.61.24,2.37.33.76.09,1.51.14,2.27.14s1.51-.05,2.27-.14c.76-.09,1.54-.2,2.37-.33-.19,4.16-.36,8.25-.52,12.25-.16,4.01-.24,8.09-.24,12.25v3.31c3.41.06,6.7.13,9.89.19,3.18.06,6.48.09,9.89.09s6.7-.03,9.89-.09c3.18-.06,6.48-.13,9.89-.19v-3.31c0-4.16-.08-8.25-.24-12.25Z"/>
  </g>
  <g>
    <path class="o" d="M154.28,143.27v3.45l.09-.05v-3.4h-.09ZM85.08,26.98l-.14,5.02.15-.09v-4.94Z"/>
    <path class="n" d="M122.93,123.98v4.11h46.52v46.61h-.09v4.11h4.2v-54.84h-50.64Z"/>
    <rect class="m" x="103.56" y="193.19" width=".09" height=".8"/>
    <polygon class="l" points="154.28 143.27 154.28 198.11 150.08 198.11 150.08 193.99 150.16 193.99 150.16 179.83 85.89 217.43 85.08 217.9 85.09 216.09 85.1 213.55 85.19 186.59 46.5 164.24 16.06 146.67 16.06 66.83 85.08 26.98 84.94 32 84.11 60.77 83.98 65.52 46.5 90.05 46.5 159.22 46.35 159.22 46.5 159.3 85.21 181.65 86.25 181.06 144.55 147.38 103.65 147.38 103.65 143.27 154.28 143.27"/>
    <polygon class="k" points="46.5 159.22 46.5 159.3 46.35 159.22 46.5 159.22"/>
    <rect class="j" x="103.56" y="193.19" width=".09" height=".8"/>
    <polygon class="i" points="80.09 212.94 80.09 217.43 76.25 215.39 16.06 180.64 16.06 176.14 75.64 210.55 75.72 210.6 80.09 212.94"/>
  </g>
</svg>