<?xml version="1.0" encoding="UTF-8"?>
<svg id="a" data-name="Layer 1" xmlns="http://www.w3.org/2000/svg" viewBox="0 0 1000 1000">
  <defs>
    <style>
      .b {
        fill-rule: evenodd;
      }

      .b, .c {
        fill: #fff;
      }
    </style>
  </defs>
  <path class="b" d="M141.92,535.75v64.18h43.27v-64.18h-43.27ZM119.04,748.04v-360.41c-20.78,7.27-35.72,27.25-35.72,50.04v260.34c0,22.79,14.93,42.79,35.72,50.04ZM387.41,182.62h360.43c-7.27-20.78-27.25-35.72-50.04-35.72h-260.36c-22.79,0-42.77,14.93-50.04,35.72h0ZM535.53,260.04h64.18v-54.54h-64.18v54.54ZM732.35,342.8c-3.32-20.65-19.37-59.88-40.28-59.88h-246.27c-26.79,0-48.82,20.1-51.24,46.76-3.7,40.73-37.32,71.45-78.22,71.45h-86.17c-12.18,0-22.08,9.92-22.08,22.1h0s0,289.21,0,289.21c0,12.18,9.92,22.12,22.1,22.12h158.44l98.35-.16s-171.01-166.06,12.4-353.59c0,0,107.4-88.4,232.97-38Z"/>
  <path class="c" d="M650.09,807.66c-133.33,0-241.8-108.47-241.8-241.8s108.47-241.8,241.8-241.8,241.8,108.47,241.8,241.8-108.47,241.8-241.8,241.8ZM650.09,340.06c-124.51,0-225.8,101.29-225.8,225.8s101.29,225.8,225.8,225.8,225.8-101.29,225.8-225.8-101.29-225.8-225.8-225.8Z"/>
  <g>
    <path class="c" d="M778.22,572.41c-4.68-.56-8.93,2.78-9.49,7.47-7.02,58.79-57.08,103.12-116.46,103.12-53.4,0-99.26-35.86-113.06-85.84l10.21,5.61c4.13,2.27,9.32.76,11.59-3.37,2.27-4.13.76-9.32-3.37-11.59l-26.2-14.39c-4.13-2.27-9.32-.76-11.59,3.36l-14.41,26.16c-2.27,4.13-.77,9.32,3.36,11.6,4.26,1.99,9.14,1.01,11.6-3.36l3.34-6.06c16.92,55.49,68.57,94.96,128.53,94.96,68.02,0,125.37-50.8,133.41-118.17.56-4.68-2.78-8.93-7.46-9.49Z"/>
    <path class="c" d="M790.63,504.56c-4.33-1.87-9.35.13-11.22,4.46l-2.69,6.23c-8.41-20.55-21.9-38.95-39.27-53.18-23.92-19.61-54.17-30.41-85.17-30.41s-61.25,10.8-85.18,30.41c-23.59,19.34-40.04,46.33-46.3,75.99-.97,4.61,1.98,9.14,6.59,10.12,4.61.97,9.14-1.98,10.11-6.59,5.46-25.88,19.82-49.43,40.42-66.32,20.88-17.11,47.29-26.54,74.35-26.54s53.47,9.42,74.35,26.54c16.05,13.15,28.3,30.35,35.52,49.55l-10.81-4.65c-4.33-1.86-9.35.14-11.22,4.47s.14,9.35,4.47,11.21l27.46,11.81c4.67,1.93,9.22-.04,11.21-4.46l11.83-27.43c1.87-4.33-.13-9.35-4.46-11.22Z"/>
    <path class="c" d="M704.89,503.06c2.45-4.94,2.83-10.54,1.06-15.77s-5.46-9.45-10.4-11.9c-10.2-5.06-22.62-.87-27.67,9.34-1.1,2.23-1.79,4.6-2.04,7-6.59-.61-13.3,0-19.79,1.88-12.93,3.72-23.93,12.08-30.97,23.55l-23.05,37.54c-3.08-.55-6.26-.32-9.31.7-4.76,1.61-8.62,4.97-10.85,9.48l-1.52,3.07c-4.61,9.3-.79,20.61,8.51,25.22l49.9,24.73c-4.91,10.22-2.71,21.71,10.04,28.13,11.18,4.59,23.63.09,28.46-9.05l5.28,2.61c2.64,1.31,5.48,1.97,8.34,1.97,2.03,0,4.06-.33,6.03-1,4.76-1.61,8.61-4.97,10.85-9.48l1.52-3.07c2.23-4.5,2.58-9.61.97-14.37-1.03-3.05-2.77-5.72-5.08-7.83l15.91-41.08c4.86-12.55,4.85-26.36-.02-38.9-2.45-6.3-6.02-12.01-10.5-16.89,1.76-1.66,3.23-3.63,4.34-5.86ZM686.37,490.28c1.98,0,3.59,1.61,3.59,3.58s-1.61,3.58-3.59,3.58-3.58-1.61-3.58-3.58,1.61-3.58,3.58-3.58ZM649.77,630.93c-1.12.38-2.32.3-3.38-.23-1.06-.52-1.85-1.43-2.23-2.55-.3-.88-.31-1.8-.05-2.67l7.81,3.87c-.54.73-1.28,1.28-2.15,1.58ZM695.15,558.54l-17.33,44.75c-2.44,5.53-.11,12.07,5.36,14.79h0c.89.48,1.22,1.45.79,2.34l-1.52,3.07c-.51.89-1.42,1.18-2.34.79l-93.68-46.42c-.86-.43-1.22-1.48-.79-2.34l1.52-3.07c.41-.76,1.21-1.3,2.34-.79,2.72,1.35,5.81,1.56,8.69.59,2.72-.92,4.95-2.78,6.32-5.28l25.1-40.89c4.8-7.83,12.31-13.53,21.14-16.07,8.82-2.54,18.22-1.69,26.44,2.39t0,0s0,0,0,0c8.23,4.08,14.59,11.04,17.92,19.6,3.33,8.56,3.33,17.99.02,26.55Z"/>
  </g>
</svg>